<svg xmlns="http://www.w3.org/2000/svg" width="64" height="64" viewBox="0 0 64 64">
  <path d="M44.19,41.905C44.19,45.272,38.735,48,32,48s-12.19-2.728-12.19-6.095c0-1.966,1.859-3.718,4.739-4.831l.975,1.387c-1.646.686-2.667,1.63-2.667,2.682,0,2.1,4.1,3.809,9.143,3.809s9.143-1.706,9.143-3.809c0-1.052-1.021-2-2.667-2.682l.975-1.387C42.331,38.187,44.19,39.939,44.19,41.905Z" fill="#f58a67"/>
  <path d="M32,16a9.1,9.1,0,0,1,9.143,9.067c0,5.42-5.817,12.906-8.171,15.714a1.265,1.265,0,0,1-1.944,0c-2.354-2.808-8.171-10.294-8.171-15.714A9.1,9.1,0,0,1,32,16" fill="#ffcb2c"/>
  <path d="M32,22.1a3.049,3.049,0,1,0,3.048,3.048A3.05,3.05,0,0,0,32,22.1" fill="#f27c21"/>
</svg>
