<?xml version="1.0" encoding="utf-8"?>
<!-- Generator: Adobe Illustrator 25.3.1, SVG Export Plug-In . SVG Version: 6.00 Build 0)  -->
<svg version="1.1" id="Layer_1" xmlns="http://www.w3.org/2000/svg" xmlns:xlink="http://www.w3.org/1999/xlink" x="0px" y="0px"
	 viewBox="0 0 64 64" style="enable-background:new 0 0 64 64;" xml:space="preserve">
<style type="text/css">
	.text-amber-900{fill:#FF6F00;}
</style>
<g>
	<path class="text-amber-900" d="M24.1,19.4h19.6v19.9H31.5c-0.7,0-1.2,0.6-1.2,1.2v0.8c0,0.7,0.6,1.2,1.2,1.2h12.2c1.8,0,3.3-1.5,3.3-3.3V19.7
		c0-1.8-1.5-3.3-3.3-3.3H24.1c-1.8,0-3.3,1.5-3.3,3.3v12.2c0,0.7,0.6,1.2,1.2,1.2c0,0,0,0,0,0h0.8c0.7,0,1.2-0.6,1.2-1.2V19.4z"/>
	<path class="text-amber-900" d="M27.4,23h11.8c0.7,0,1.2,0.6,1.2,1.2V25c0,0.7-0.6,1.2-1.2,1.2H27.4V23z"/>
	<path class="text-amber-900" d="M27.4,27.9v3.3h11.8c0.7,0,1.2-0.6,1.2-1.2v-0.8c0-0.7-0.6-1.2-1.2-1.2H27.4z"/>
	<path class="text-amber-900" d="M27.4,32.8h8.3c0.7,0,1.2,0.6,1.2,1.2v0.8c0,0.7-0.6,1.2-1.2,1.2h-8.3L27.4,32.8z"/>
</g>
<path class="text-amber-900" d="M26.7,37.4L26.7,37.4c-1.2-1.4-3.1-2-4.8-1.6c-1.6,0.5-2.6,1.7-4,2.5c-1.6,0.8-3.4,1.4-5.2,1.6
	c-0.8,0.2,0,2.1,2.5,2.1c1.9,0-4.1,4.8-2.4,6.9c1.1,1.4,5-3,6.8-2.5c1.1,0.3,1.1,1,0.5,1.8c-0.7,0.9,0.1,1.5,0.6,1.2
	c0.5-0.2,1.7-1,4.2-3.7c1.2-1.1,2.2-2.4,2.9-3.8C28.2,41,28.4,39.6,26.7,37.4z M24.2,37.4c-2.8,0.5-1.9,2.9-3.8,3.6
	c-1.3,0.5-2.7,0.4-3.9-0.2c-0.2-0.1-0.2-0.3,0.1-0.4c1.5-0.2,2.9-1,3.9-2.3c1.6-1.6,2.8-1.7,3.6-1.5C24.6,36.8,24.5,37.3,24.2,37.4z
	"/>
</svg>
