<svg xmlns="http://www.w3.org/2000/svg" width="64" height="64" viewBox="0 0 64 64">
  <g>
    <path d="M16.976,40.547H47.024a.976.976,0,0,1,.976.976v2.367a2.88,2.88,0,0,1-2.88,2.88H18.88A2.88,2.88,0,0,1,16,43.889V41.523a.976.976,0,0,1,.976-.976Z" fill="#ffcb2c"/>
    <path d="M32,18.475c11.882,0,16,7.735,16,10.632h0a.976.976,0,0,1-.976.976H16.976A.976.976,0,0,1,16,29.107h0C16,26.21,20.118,18.475,32,18.475Z" fill="#ffcb2c"/>
    <path d="M45.687,38.428H18.313A2.312,2.312,0,0,1,16,36.116v-1.6a2.313,2.313,0,0,1,2.313-2.313H32.824a2.315,2.315,0,0,1,1.411.48l3,2.312a1.3,1.3,0,0,0,1.776-.173l1.611-1.833a2.315,2.315,0,0,1,1.737-.786h3.325A2.313,2.313,0,0,1,48,34.519v1.6A2.312,2.312,0,0,1,45.687,38.428Z" fill="#f27c21"/>
  </g>
</svg>
