<svg xmlns="http://www.w3.org/2000/svg" width="64" height="64" viewBox="0 0 64 64">
  <g>
    <path d="M21.7,24.624h.619a1,1,0,0,1,1,1V36.118a.849.849,0,0,0,.849.848h17.9a1,1,0,0,1,1,1v.619a.849.849,0,0,1-.848.849H21.7a.849.849,0,0,1-.848-.849V25.473A.849.849,0,0,1,21.7,24.624Z" fill="#f58a67"/>
    <path d="M16.849,29.5h.618a1,1,0,0,1,1,1V41a.849.849,0,0,0,.849.849h17.9a1,1,0,0,1,1,1v.619a.848.848,0,0,1-.848.848H16.849A.849.849,0,0,1,16,43.464V30.351A.849.849,0,0,1,16.849,29.5Z" fill="#f27c21"/>
    <path d="M26.633,19.688H47.151a.849.849,0,0,1,.849.848V33.649a.849.849,0,0,1-.849.849H26.633a.848.848,0,0,1-.848-.849V20.536A.848.848,0,0,1,26.633,19.688Zm4.088,2.468a2.468,2.468,0,0,1-2.468,2.468v4.937a2.468,2.468,0,0,1,2.468,2.469H43.063a2.468,2.468,0,0,1,2.469-2.469V24.624a2.468,2.468,0,0,1-2.469-2.468H30.721" fill="#ffcb2c"/>
    <path d="M37.457,28.865a.725.725,0,0,0,.231-.177.5.5,0,0,0,.118-.335.493.493,0,0,0-.095-.317.932.932,0,0,0-.254-.2l-.9-.383-.021-.007c-1.029-.4-1.549-.994-1.549-1.769a1.517,1.517,0,0,1,.45-1.1,1.9,1.9,0,0,1,1.12-.533V23.4a.079.079,0,0,1,.079-.079h.739a.079.079,0,0,1,.079.079v.664a1.876,1.876,0,0,1,.938.436,1.806,1.806,0,0,1,.512.769.079.079,0,0,1-.043.1l-.93.415a.082.082,0,0,1-.065,0,.079.079,0,0,1-.043-.048.832.832,0,0,0-.175-.3.717.717,0,0,0-.194-.154,1,1,0,0,0-.9-.064.728.728,0,0,0-.264.164.406.406,0,0,0-.126.3.417.417,0,0,0,.109.292,1.117,1.117,0,0,0,.281.214l.9.4a3.844,3.844,0,0,1,1.16.7,1.4,1.4,0,0,1,.41,1.053,1.6,1.6,0,0,1-.472,1.2,2.067,2.067,0,0,1-1.1.541v.664a.079.079,0,0,1-.079.079h-.739a.079.079,0,0,1-.079-.079V30.09a2.252,2.252,0,0,1-1.094-.506,2.279,2.279,0,0,1-.706-1.143.079.079,0,0,1,.046-.095l.956-.39a.078.078,0,0,1,.065,0,.079.079,0,0,1,.041.05,1.4,1.4,0,0,0,.3.567,1.122,1.122,0,0,0,.393.294A1.092,1.092,0,0,0,37.457,28.865Z" fill="#f27c21"/>
  </g>
</svg>
